HIERARCHY
ROOT joint_Root
{
	OFFSET 0.0 0.0 0.0
	CHANNELS 6 Xposition Yposition Zposition Zrotation Xrotation Yrotation 
	JOINT Hips
	{
		OFFSET 4.5925 91.4895 -427.239
		CHANNELS 6 Xposition Yposition Zposition Zrotation Xrotation Yrotation 
		JOINT Spine
		{
			OFFSET 15.7357 0.0 0.0
			CHANNELS 6 Xposition Yposition Zposition Zrotation Xrotation Yrotation 
			JOINT Chest
			{
				OFFSET 8.98455 -0.406207 0.0
				CHANNELS 6 Xposition Yposition Zposition Zrotation Xrotation Yrotation 
				JOINT Neck
				{
					OFFSET 16.3773 0.0 0.0
					CHANNELS 6 Xposition Yposition Zposition Zrotation Xrotation Yrotation 
					JOINT Head
					{
						OFFSET 6.45672 0.0 0.0
						CHANNELS 6 Xposition Yposition Zposition Zrotation Xrotation Yrotation 
						End Site
						{
							OFFSET 0.0 0.0 0.0
						}
					}
				}
				JOINT Shoulder_L
				{
					OFFSET 12.9942 -0.242716 4.98039
					CHANNELS 6 Xposition Yposition Zposition Zrotation Xrotation Yrotation 
					JOINT UpperArm_L
					{
						OFFSET 5.34809 0.0 0.0
						CHANNELS 6 Xposition Yposition Zposition Zrotation Xrotation Yrotation 
						JOINT LowerArm_L
						{
							OFFSET 24.3286 1.87007e-05 0.0
							CHANNELS 6 Xposition Yposition Zposition Zrotation Xrotation Yrotation 
							JOINT Hand_L
							{
								OFFSET 22.2916 0.0 0.0
								CHANNELS 6 Xposition Yposition Zposition Zrotation Xrotation Yrotation 
								End Site
								{
									OFFSET 0.0 0.0 0.0
								}
							}
						}
					}
				}
				JOINT Shoulder_R
				{
					OFFSET 12.9945 -0.242716 -4.98039
					CHANNELS 6 Xposition Yposition Zposition Zrotation Xrotation Yrotation 
					JOINT UpperArm_R
					{
						OFFSET -5.34813 0.0 0.0
						CHANNELS 6 Xposition Yposition Zposition Zrotation Xrotation Yrotation 
						JOINT LowerArm_R
						{
							OFFSET -24.3289 0.000322201 0.0
							CHANNELS 6 Xposition Yposition Zposition Zrotation Xrotation Yrotation 
							JOINT Hand_R
							{
								OFFSET -22.2915 -0.000108084 0.0
								CHANNELS 6 Xposition Yposition Zposition Zrotation Xrotation Yrotation 
								End Site
								{
									OFFSET 0.0 0.0 0.0
								}
							}
						}
					}
				}
			}
		}
		JOINT UpperLeg_L
		{
			OFFSET -2.19248 -6.46944 0.0
			CHANNELS 6 Xposition Yposition Zposition Zrotation Xrotation Yrotation 
			JOINT LowerLeg_L
			{
				OFFSET 39.0811 0.0 -1.23785e-05
				CHANNELS 6 Xposition Yposition Zposition Zrotation Xrotation Yrotation 
				JOINT Foot_L
				{
					OFFSET 40.9854 0.0 -1.26872e-05
					CHANNELS 6 Xposition Yposition Zposition Zrotation Xrotation Yrotation 
					JOINT Toes_L
					{
						OFFSET 11.7543 0.0 0.0
						CHANNELS 6 Xposition Yposition Zposition Zrotation Xrotation Yrotation 
						End Site
						{
							OFFSET 0.0 0.0 0.0
						}
					}
				}
			}
		}
		JOINT UpperLeg_R
		{
			OFFSET -2.19251 6.46944 0.0
			CHANNELS 6 Xposition Yposition Zposition Zrotation Xrotation Yrotation 
			JOINT LowerLeg_R
			{
				OFFSET -39.0811 -0.00228153 -0.0401928
				CHANNELS 6 Xposition Yposition Zposition Zrotation Xrotation Yrotation 
				JOINT Foot_R
				{
					OFFSET -40.9854 0.0 0.0
					CHANNELS 6 Xposition Yposition Zposition Zrotation Xrotation Yrotation 
					JOINT Toes_R
					{
						OFFSET -11.7543 0.0 0.0
						CHANNELS 6 Xposition Yposition Zposition Zrotation Xrotation Yrotation 
						End Site
						{
							OFFSET 0.0 0.0 0.0
						}
					}
				}
			}
		}
	}
}
MOTION
Frames:	6
Frame Time:	0.0333333
0.000000 0.000000 0.000000 0.000000 0.000000 -0.000000 -55.418400 89.361900 194.271000 89.228600 79.527200 -0.653809 15.735700 0.000005 -0.000001 119.102000 84.509700 -120.161000 8.984550 -0.406207 -0.000000 1.887480 5.391640 -2.205610 16.377300 -0.000001 -0.000001 -3.465620 0.954267 2.665310 6.456720 -0.000001 -0.000000 -12.280300 -1.330950 6.739090 12.994200 -0.242716 4.980390 -91.320800 4.067050 -71.990900 5.348090 -0.000007 -0.000001 -72.840200 17.447900 7.918660 24.328600 0.000019 0.000005 7.116410 31.394100 -13.477600 22.291600 -0.000001 0.000005 8.684320 5.128070 4.464470 12.994500 -0.242716 -4.980390 89.128400 7.710030 -83.530100 -5.348130 -0.000001 -0.000004 -54.522900 29.360300 -25.991700 -24.328900 0.000322 -0.000009 1.322450 1.706020 -37.813600 -22.291500 -0.000108 -0.000004 18.128300 5.454850 -4.814190 -2.192480 -6.469440 -0.000000 -178.541000 -10.763800 -28.319100 39.081100 -0.000007 -0.000012 -0.095880 0.140997 34.216500 40.985400 -0.000006 -0.000013 -0.811863 -0.831122 -57.435300 11.754300 -0.000000 0.000003 -0.000008 -0.000114 -16.582000 -2.192510 6.469440 -0.000001 169.387000 21.799800 -171.004000 -39.081100 -0.002282 -0.040193 0.011494 -0.014917 28.768200 -40.985400 0.000008 0.000006 5.847270 20.900900 -68.508000 -11.754300 -0.000006 -0.000006 -0.086482 -0.409698 -33.611500
0.000000 0.000000 0.000000 0.000000 0.000000 -0.000000 -51.670900 88.703000 193.923000 89.217600 77.783100 -0.039697 15.735700 0.000005 -0.000001 120.092000 84.472400 -121.368000 8.984550 -0.406207 -0.000000 1.872000 5.605210 -2.642940 16.377300 -0.000001 -0.000001 -3.478890 0.863320 2.375400 6.456720 -0.000001 -0.000000 -12.547500 -1.357840 5.848280 12.994200 -0.242716 4.980390 -91.346800 4.159750 -72.041900 5.348090 -0.000007 -0.000001 -72.484400 18.511400 6.597080 24.328600 0.000019 0.000005 6.725590 31.089000 -12.864200 22.291600 -0.000001 0.000005 8.690460 5.125540 4.522740 12.994500 -0.242716 -4.980390 89.118300 7.642880 -83.399300 -5.348130 -0.000001 -0.000004 -57.234500 30.627600 -22.933200 -24.328900 0.000322 -0.000009 1.759710 2.280010 -37.695200 -22.291500 -0.000108 -0.000004 17.903300 5.457110 -4.895890 -2.192480 -6.469440 -0.000000 -178.220000 -10.049600 -27.595900 39.081100 -0.000007 -0.000012 -0.230652 0.277551 39.728000 40.985400 -0.000006 -0.000013 -1.422500 -2.613290 -63.028000 11.754300 -0.000000 0.000003 -0.000103 -0.001054 -16.618000 -2.192510 6.469440 -0.000001 168.301000 18.395500 -169.879000 -39.081100 -0.002282 -0.040193 0.026239 -0.038532 30.766800 -40.985400 0.000008 0.000006 5.244610 20.101100 -66.721800 -11.754300 -0.000006 -0.000006 -0.127660 -0.508571 -37.954700
0.000000 0.000000 0.000000 0.000000 0.000000 -0.000000 -47.671800 88.146300 193.436000 89.968500 75.689400 -0.327071 15.735700 0.000005 -0.000001 122.605000 84.487300 -124.058000 8.984550 -0.406207 -0.000000 1.609310 6.015870 -2.989900 16.377300 -0.000001 -0.000001 -3.396320 1.092660 1.922290 6.456720 -0.000001 -0.000000 -12.691500 -1.024980 4.440090 12.994200 -0.242716 4.980390 -91.514700 4.580740 -71.681300 5.348090 -0.000007 -0.000001 -71.585400 19.769200 4.779650 24.328600 0.000019 0.000005 6.844990 30.799700 -13.193800 22.291600 -0.000001 0.000005 8.417950 5.126200 4.506530 12.994500 -0.242716 -4.980390 89.123700 7.487980 -83.305900 -5.348130 -0.000001 -0.000004 -60.564700 31.631400 -19.004200 -24.328900 0.000322 -0.000009 1.753900 2.393790 -36.263400 -22.291500 -0.000108 -0.000004 17.811900 5.458000 -4.928230 -2.192480 -6.469440 -0.000000 -178.601000 -10.162900 -25.924400 39.081100 -0.000007 -0.000012 -0.328776 0.346878 43.466000 40.985400 -0.000006 -0.000013 -1.866960 -4.373500 -68.046800 11.754300 -0.000000 0.000003 -0.000306 -0.002648 -16.676100 -2.192510 6.469440 -0.000001 166.958000 15.046500 -169.904000 -39.081100 -0.002282 -0.040193 0.057484 -0.080477 33.954800 -40.985400 0.000008 0.000006 4.975350 19.804300 -63.452400 -11.754300 -0.000006 -0.000006 -0.191286 -0.630430 -43.530400
0.000000 0.000000 0.000000 0.000000 0.000000 -0.000000 -43.803000 87.769600 192.889000 90.616600 74.202000 -0.440439 15.735700 0.000005 -0.000001 123.427000 84.616500 -124.953000 8.984550 -0.406207 -0.000000 1.310410 6.014480 -3.121710 16.377300 -0.000001 -0.000001 -3.300130 1.588370 1.255060 6.456720 -0.000001 -0.000000 -12.601600 -0.280895 2.800310 12.994200 -0.242716 4.980390 -91.782600 5.258090 -71.242000 5.348090 -0.000007 -0.000001 -70.250600 20.692700 2.598610 24.328600 0.000019 0.000005 7.357770 30.394000 -14.317400 22.291600 -0.000001 0.000005 8.764540 5.138200 4.224240 12.994500 -0.242716 -4.980390 89.075700 7.696700 -83.131600 -5.348130 -0.000001 -0.000004 -63.503000 32.407700 -15.026300 -24.328900 0.000322 -0.000009 1.543310 2.360700 -33.210100 -22.291500 -0.000108 -0.000004 17.302500 5.456890 -4.886630 -2.192480 -6.469440 -0.000000 -179.272000 -11.123400 -23.417100 39.081100 -0.000007 -0.000012 -0.396228 0.390695 45.403700 40.985400 -0.000006 -0.000013 -1.771690 -4.969930 -72.083100 11.754300 -0.000000 0.000003 -0.000458 -0.003699 -16.713300 -2.192510 6.469440 -0.000001 165.645000 12.548400 -171.232000 -39.081100 -0.002282 -0.040193 0.109234 -0.131897 38.774800 -40.985400 0.000008 0.000006 5.122610 19.963800 -58.430000 -11.754300 -0.000006 -0.000006 -0.252032 -0.725261 -48.097600
0.000000 0.000000 0.000000 0.000000 0.000000 -0.000000 -40.180600 87.499900 192.406000 90.938900 73.357100 -0.019429 15.735700 0.000005 -0.000001 122.226000 84.667700 -123.743000 8.984550 -0.406207 -0.000000 1.341610 5.769300 -3.100350 16.377300 -0.000001 -0.000001 -3.485150 2.145020 0.122197 6.456720 -0.000001 -0.000000 -12.335600 0.480286 1.435540 12.994200 -0.242716 4.980390 -91.959000 5.747200 -71.141800 5.348090 -0.000007 -0.000001 -68.858300 20.739400 -0.197389 24.328600 0.000019 0.000005 8.202430 29.722900 -16.211500 22.291600 -0.000001 0.000005 8.939310 5.152310 3.888760 12.994500 -0.242716 -4.980390 88.961100 8.267670 -82.812700 -5.348130 -0.000001 -0.000004 -65.905200 32.297100 -11.367000 -24.328900 0.000322 -0.000009 1.731510 3.131900 -28.982900 -22.291500 -0.000108 -0.000004 16.250300 5.448800 -4.593480 -2.192480 -6.469440 -0.000000 -179.789000 -12.129000 -20.298100 39.081100 -0.000007 -0.000012 -0.421359 0.404754 46.152500 40.985400 -0.000006 -0.000013 -1.446380 -5.002810 -75.322100 11.754300 -0.000000 0.000003 -0.000540 -0.004245 -16.732300 -2.192510 6.469440 -0.000001 164.966000 9.972060 -173.714000 -39.081100 -0.002282 -0.040193 0.166352 -0.163183 44.983500 -40.985400 0.000008 0.000006 4.705600 19.531100 -52.263200 -11.754300 -0.000006 -0.000006 -0.224398 -0.684172 -46.089800
0.000000 0.000000 0.000000 0.000000 0.000000 -0.000000 -36.961400 87.264400 192.072000 90.618400 72.860700 1.150140 15.735700 0.000005 -0.000001 118.494000 84.627900 -119.889000 8.984550 -0.406207 -0.000000 1.748760 5.195980 -2.866840 16.377300 -0.000001 -0.000001 -3.798400 2.867580 -0.927198 6.456720 -0.000001 -0.000000 -12.402900 1.519310 -0.411702 12.994200 -0.242716 4.980390 -92.097600 6.173620 -71.192400 5.348090 -0.000007 -0.000001 -67.219700 21.320600 -3.464620 24.328600 0.000019 0.000005 9.030890 27.943400 -18.737000 22.291600 -0.000001 0.000005 9.584300 5.164410 3.596830 12.994500 -0.242716 -4.980390 88.865500 8.872410 -82.683300 -5.348130 -0.000001 -0.000004 -67.844700 31.187900 -8.442350 -24.328900 0.000322 -0.000009 2.036610 4.595690 -23.957000 -22.291500 -0.000108 -0.000004 15.305400 5.428540 -3.886150 -2.192480 -6.469440 -0.000000 -179.865000 -13.135700 -17.008500 39.081100 -0.000007 -0.000012 -0.436515 0.417415 46.282300 40.985400 -0.000006 -0.000013 -1.072420 -4.653660 -77.932200 11.754300 -0.000000 0.000003 -0.000586 -0.004542 -16.742500 -2.192510 6.469440 -0.000001 165.218000 6.852290 -177.481000 -39.081100 -0.002282 -0.040193 0.221149 -0.167973 52.374000 -40.985400 0.000008 0.000006 1.810080 17.322500 -45.032100 -11.754300 -0.000006 -0.000006 -0.110749 -0.470476 -36.264900
